<svg fill="none" height="16" viewBox="0 0 16 16" width="16" xmlns="http://www.w3.org/2000/svg">
    <g fill="#e06c00">
        <path clip-rule="evenodd"
              d="m8 1.5c-3.58985 0-6.5 2.91015-6.5 6.5 0 3.5899 2.91015 6.5 6.5 6.5 3.5899 0 6.5-2.9101 6.5-6.5 0-3.58985-2.9101-6.5-6.5-6.5zm-8 6.5c0-4.41828 3.58172-8 8-8 4.4183 0 8 3.58172 8 8 0 4.4183-3.5817 8-8 8-4.41828 0-8-3.5817-8-8zm8-3c-.58579 0-1 .41421-1 1h-1.5c0-1.41421 1.08579-2.5 2.5-2.5s2.5 1.08579 2.5 2.5c0 1.13259-.71262 1.7057-1.16163 2.05849-.51146.40186-.58837.49349-.58837.69151v.75h-1.5v-.75c0-.97741.68895-1.50713 1.07821-1.80641.0297-.02284.05765-.04433.08342-.06458.426-.33471.58837-.5116.58837-.87901 0-.58579-.41421-1-1-1z"
              fill-rule="evenodd"/>
        <path d="m9 11.5c0 .5523-.44772 1-1 1s-1-.4477-1-1 .44772-1 1-1 1 .4477 1 1z"/>
    </g>
</svg>
